<?xml version="1.0" encoding="UTF-8" standalone="no"?>
<svg
   xmlns:dc="http://purl.org/dc/elements/1.1/"
   xmlns:cc="http://creativecommons.org/ns#"
   xmlns:rdf="http://www.w3.org/1999/02/22-rdf-syntax-ns#"
   xmlns:svg="http://www.w3.org/2000/svg"
   xmlns="http://www.w3.org/2000/svg"
   viewBox="0 0 5333.3335 5333.3335"
   height="5333.3335"
   width="5333.3335"
   xml:space="preserve"
   id="svg2"
   version="1.1"><metadata
     id="metadata8"><rdf:RDF><cc:Work
         rdf:about=""><dc:format>image/svg+xml</dc:format><dc:type
           rdf:resource="http://purl.org/dc/dcmitype/StillImage" /></cc:Work></rdf:RDF></metadata><defs
     id="defs6"><clipPath
       id="clipPath40"
       clipPathUnits="userSpaceOnUse"><path
         id="path38"
         d="m 24037.4,17074.3 c 0,0 -619.7,-3998.7 198.8,-5471.9 0,0 -1238.4,-2141 -3713.7,-2061.4 -219.9,7.1 -439.7,7.1 -659.6,0 -2475.1,-79.4 -3713.3,2061.4 -3713.3,2061.4 818.5,1473.2 198.8,5471.9 198.8,5471.9 z" /></clipPath><linearGradient
       id="linearGradient52"
       spreadMethod="pad"
       gradientTransform="matrix(0,11145.3,11145.3,0,20192.9,7834.7)"
       gradientUnits="userSpaceOnUse"
       y2="0"
       x2="1"
       y1="0"
       x1="0"><stop
         id="stop44"
         offset="0"
         style="stop-opacity:1;stop-color:#ffffff" /><stop
         id="stop46"
         offset="0.00000011"
         style="stop-opacity:1;stop-color:#ffffff" /><stop
         id="stop48"
         offset="0.55795248"
         style="stop-opacity:1;stop-color:#ffffff" /><stop
         id="stop50"
         offset="1"
         style="stop-opacity:1;stop-color:#1d1d1b" /></linearGradient></defs><g
     transform="matrix(1.3333333,0,0,-1.3333333,0,5333.3333)"
     id="g10"><g
       transform="scale(0.1)"
       id="g12"><g
         transform="scale(2.45399)"
         id="g14"><path
           id="path16"
           style="fill:#ffffff;fill-opacity:1;fill-rule:nonzero;stroke:none"
           d="M 16300,0 H 0 V 16300 H 16300 V 0" /></g><g
         transform="scale(2.25548)"
         id="g18"><path
           id="path20"
           style="fill:#c2c4c4;fill-opacity:1;fill-rule:nonzero;stroke:none"
           d="m 15422.2,9745.08 c 0,-3620.17 -2934.7,-6554.93 -6554.89,-6554.93 -3620.17,0 -6554.92,2934.76 -6554.92,6554.93 0,3620.22 2934.75,6554.92 6554.92,6554.92 3620.19,0 6554.89,-2934.7 6554.89,-6554.92" /></g><g
         transform="scale(2.12267)"
         id="g22"><path
           id="path24"
           style="fill:#dbdbdb;fill-opacity:1;fill-rule:nonzero;stroke:none"
           d="m 9539.59,5846.04 c -75.32,0 -150.65,0 -150.65,0 l -2918.6,-772.19 c 0,0 -3691.14,-1276.84 -3360.65,-2268.33 0,0 3112.01,-1226.61 6429.9,-1281.17 3317.91,54.56 6429.91,1281.17 6429.91,1281.17 330.5,991.49 -3360.6,2268.33 -3360.6,2268.33 l -2918.65,772.19 c 0,0 -75.32,0 -150.66,0" /></g><g
         transform="scale(1.23902)"
         id="g26"><path
           id="path28"
           style="fill:#7c7c7c;fill-opacity:1;fill-rule:nonzero;stroke:none"
           d="m 11125.2,16300 c 21.7,-94.3 775.8,-1736.3 1172.6,-1679.7 396.7,56.6 736.4,264.2 736.4,358.6 0,94.4 -415.2,1321.1 -415.2,1321.1 h -1493.8" /></g><g
         transform="scale(1.64199)"
         id="g30"><path
           id="path32"
           style="fill:#7c7c7c;fill-opacity:1;fill-rule:nonzero;stroke:none"
           d="m 16300,12385.1 c 0,0 -497.6,-1355 -1166.9,-1353.9 -669.3,1 -227.9,1197.3 -227.9,1197.3 l 1394.8,156.6" /></g><g
         id="g34"><g
           clip-path="url(#clipPath40)"
           id="g36"><g
             transform="scale(1.48688)"
             id="g42"><path
               id="path54"
               style="fill:url(#linearGradient52);fill-opacity:1;fill-rule:nonzero;stroke:none"
               d="m 16166.3,11483.3 c 0,0 -416.8,-2689.34 133.7,-3680.13 0,0 -832.9,-1439.93 -2497.6,-1386.39 -147.9,4.77 -295.8,4.77 -443.7,0 -1664.6,-53.4 -2497.3,1386.39 -2497.3,1386.39 550.5,990.79 133.7,3680.13 133.7,3680.13 h 5171.2" /></g></g></g><g
         transform="scale(1.90037)"
         id="g56"><path
           id="path58"
           style="fill:#dbdbdb;fill-opacity:1;fill-rule:nonzero;stroke:none"
           d="m 10536.2,7459.66 c 0,0 889.2,-140.23 1606.1,632.57 130.2,140.34 265.1,275.41 411.4,398.92 286.1,241.42 760.3,747.01 861.9,1508.71 l 541.4,2976.24 v 2511.8 c 0,0 -1845.8,713.7 -1944.2,713.7 -98.4,0 -1107.4,0 -1107.4,0 l -369.2,98.4 h 213.8 l -369.2,-98.4 c 0,0 -1008.98,0 -1107.44,0 -98.45,0 -1944.2,-713.7 -1944.2,-713.7 v -2511.8 l 541.42,-2976.24 c 101.62,-761.7 575.73,-1267.29 861.89,-1508.71 146.29,-123.51 281.21,-258.58 411.39,-398.92 716.92,-772.8 1606.14,-632.57 1606.14,-632.57 h -213.8" /></g><g
         transform="scale(1.7339)"
         id="g60"><path
           id="path62"
           style="fill:#dbdbdb;fill-opacity:1;fill-rule:nonzero;stroke:none"
           d="m 14600.7,11351.1 c 0,0 755.2,-296.7 1092.4,431.6 337.2,728.2 606.9,1173.3 579.9,1483.4 -27,310.2 -1146.3,795.7 -1146.3,795.7 0,0 -579.9,-728.2 -526,-836.1 53.9,-107.9 0,-1874.6 0,-1874.6" /></g><g
         transform="scale(1.52307)"
         id="g64"><path
           id="path66"
           style="fill:#dbdbdb;fill-opacity:1;fill-rule:nonzero;stroke:none"
           d="m 10000.2,12922.3 c 0,0 -859.76,-337.8 -1243.6,491.4 -383.83,829 -659.52,1334.3 -660.17,1688.8 -2.11,1197.5 1305.06,905.8 1305.06,905.8 0,0 660.21,-829.1 598.71,-951.9 -61.38,-122.8 0,-2134.1 0,-2134.1" /></g><g
         transform="scale(2.2045)"
         id="g68"><path
           id="path70"
           style="fill:#7c7c7c;fill-opacity:1;fill-rule:nonzero;stroke:none"
           d="m 10200.4,13457.2 c 0,0 -891.08,-1591.1 -2970.1,-594 0,0 -190.93,297 -275.8,-1103.1 -84.87,-1400.2 -424.32,-1442.6 -424.32,-1442.6 0,0 -148.46,318.2 -784.93,403 0,0 -912.23,-278.5 -784.94,465.4 0,0 1336.53,404.4 381.85,913.6 0,0 -594.01,359.3 -127.28,444.8 0,0 657.65,43.1 403.08,1209.9 0,0 21.23,2291.2 3097.35,1569.9 0,0 615.23,-42.4 742.52,275.8 0,0 1018.27,488 1188.07,-763.7 0,0 296.9,763.7 -488,1081.9 0,0 1082,381.9 1060.7,-1081.9 0,0 657.7,0 1039.5,360.6 0,0 63.7,-530.3 -594,-530.3 0,0 1315.3,-848.6 933.5,-1739.6 0,0 700.1,-106.1 551.6,-594 -148.5,-488 -806.2,-127.3 -509.2,-657.7 297,-530.4 424.3,-533 615.2,-489.3 191,43.8 63.7,-741.1 -360.6,-507.8 0,0 487.9,-403.1 -169.7,-487.9 0,0 -212.2,594 -721.3,190.9 l -169.7,-190.9 c 0,0 42.4,848.6 -360.7,1357.7 -403.1,509.2 -63.6,1124.4 -63.6,1124.4 0,0 -1018.3,-127.3 -1209.2,784.9" /></g><g
         transform="scale(1.70879)"
         id="g72"><path
           id="path74"
           style="fill:#ffffff;fill-opacity:1;fill-rule:nonzero;stroke:none"
           d="m 13939.6,8555 c 0,0 2052.5,-1826.74 2360.4,-4166.75 0,0 -2832.4,615.75 -2360.4,-1067.42 l 81.9,-1313.68 h -287.3 c 0,0 -333.5,1970.51 449,4782.68 0,0 293.8,556 -241.8,1191.48 l -1.8,573.69" /></g><g
         transform="scale(1.07052)"
         id="g76"><path
           id="path78"
           style="fill:#ffffff;fill-opacity:1;fill-rule:nonzero;stroke:none"
           d="m 15439.8,13655.8 c 0,0 -3276.2,-2915.9 -3767.8,-6651.13 0,0 4521.1,982.89 3767.8,-1703.86 L 15309,3203.88 h 458.7 c 0,0 532.3,3145.4 -716.8,7634.22 0,0 -469,887.6 386.1,1901.9 l 2.8,915.8" /></g><g
         transform="scale(1.45779)"
         id="g80"><path
           id="path82"
           style="fill:#ffffff;fill-opacity:1;fill-rule:nonzero;stroke:none"
           d="m 13838.7,5768.66 c -934,0 -1831.1,279.81 -2461.1,767.67 l 10.8,14.06 c 1305.3,-1010.64 3595.4,-1010.64 4900.8,0 l 10.8,-14.06 c -630.1,-487.86 -1527.2,-767.67 -2461.3,-767.67" /></g></g></g></svg>